# xmcd
#
# Track frame offsets: 
#        150
#        18635
#        33602
#        51757
#        74755
#        95107
#        112350
#        132022
#        151590
#        169155
#        185545
#        204177
#
# Disc length: 2942 seconds
#
# Revision: 2
# Processed by: cddbd v1.5.2PL0 Copyright (c) Steve Scherf et al.
# Submitted via: ExactAudioCopyFreeDBPlugin 1.0
#
DISCID=ac0b7c0c
DTITLE=Countdown Dance Masters - Ultimate Dance Trax
DYEAR=1900
DGENRE=
TTITLE0=C'mon n ride it
TTITLE1=100% pure love
TTITLE2=Missing
TTITLE3=No More Tears
TTITLE4=One night in heaven
TTITLE5=Groove thang
TTITLE6=Whatta Man
TTITLE7=Do you want to get funky
TTITLE8=Gangsta's Paradise
TTITLE9=Cantaloop
TTITLE10=Runaway Love
TTITLE11=Hey Mr. D.J.
EXTD=
EXTT0=
EXTT1=
EXTT2=
EXTT3=
EXTT4=
EXTT5=
EXTT6=
EXTT7=
EXTT8=
EXTT9=
EXTT10=
EXTT11=
PLAYORDER=
